<svg width="1024" height="753" viewBox="0 0 1024 753" fill="none" xmlns="http://www.w3.org/2000/svg">
<g clip-path="url(#clip0_122_130)">
<rect width="1024" height="753" fill="#121214"/>
<g opacity="0.2" filter="url(#filter0_f_122_130)">
<ellipse cx="536.5" cy="18" rx="670.5" ry="350" fill="#338AF3"/>
</g>
<path d="M57.0349 254C58.5302 254 59.6622 254.63 60.4308 255.891C61.2134 257.138 61.6047 258.953 61.6047 261.336C61.6047 263.719 61.2134 265.541 60.4308 266.802C59.6622 268.063 58.5302 268.693 57.0349 268.693C55.5536 268.693 54.4216 268.063 53.639 266.802C52.8564 265.541 52.4651 263.719 52.4651 261.336C52.4651 258.967 52.8564 257.152 53.639 255.891C54.4216 254.63 55.5536 254 57.0349 254ZM53.9534 261.336C53.9534 263.026 54.1072 264.35 54.4146 265.306L59.0683 256.099C58.5791 255.448 57.9013 255.122 57.0349 255.122C56.0706 255.122 55.316 255.635 54.771 256.66C54.2259 257.672 53.9534 259.23 53.9534 261.336ZM57.0349 267.55C58.0131 267.55 58.7748 267.044 59.3198 266.033C59.8648 265.008 60.1373 263.442 60.1373 261.336C60.1373 259.549 59.9627 258.163 59.6133 257.18L54.9596 266.469C55.4627 267.19 56.1545 267.55 57.0349 267.55Z" fill="url(#paint0_linear_122_130)" fill-opacity="0.6"/>
<path d="M58.2926 291.135H61.3741V292.236H53.3874V291.135H56.9511V279.455L53.5551 281.471L52.9682 280.536L57.1607 277.959H58.2926V291.135Z" fill="url(#paint1_linear_122_130)" fill-opacity="0.6"/>
<path d="M57.0349 301.502C58.5302 301.502 59.6622 302.133 60.4308 303.393C61.2134 304.64 61.6047 306.455 61.6047 308.838C61.6047 311.221 61.2134 313.043 60.4308 314.304C59.6622 315.565 58.5302 316.195 57.0349 316.195C55.5536 316.195 54.4216 315.565 53.639 314.304C52.8564 313.043 52.4651 311.221 52.4651 308.838C52.4651 306.469 52.8564 304.654 53.639 303.393C54.4216 302.133 55.5536 301.502 57.0349 301.502ZM53.9534 308.838C53.9534 310.529 54.1072 311.852 54.4146 312.808L59.0683 303.601C58.5791 302.95 57.9013 302.624 57.0349 302.624C56.0706 302.624 55.316 303.137 54.771 304.162C54.2259 305.174 53.9534 306.732 53.9534 308.838ZM57.0349 315.052C58.0131 315.052 58.7748 314.546 59.3198 313.535C59.8648 312.51 60.1373 310.944 60.1373 308.838C60.1373 307.051 59.9627 305.665 59.6133 304.682L54.9596 313.971C55.4627 314.692 56.1545 315.052 57.0349 315.052Z" fill="url(#paint2_linear_122_130)" fill-opacity="0.6"/>
<path d="M58.2926 338.637H61.3741V339.738H53.3874V338.637H56.9511V326.957L53.5551 328.973L52.9682 328.038L57.1607 325.461H58.2926V338.637Z" fill="url(#paint3_linear_122_130)" fill-opacity="0.6"/>
<path d="M58.2926 362.388H61.3741V363.489H53.3874V362.388H56.9511V350.708L53.5551 352.724L52.9682 351.789L57.1607 349.212H58.2926V362.388Z" fill="url(#paint4_linear_122_130)" fill-opacity="0.6"/>
<path d="M57.0349 372.755C58.5302 372.755 59.6622 373.386 60.4308 374.646C61.2134 375.893 61.6047 377.708 61.6047 380.091C61.6047 382.474 61.2134 384.296 60.4308 385.557C59.6622 386.818 58.5302 387.448 57.0349 387.448C55.5536 387.448 54.4216 386.818 53.639 385.557C52.8564 384.296 52.4651 382.474 52.4651 380.091C52.4651 377.722 52.8564 375.907 53.639 374.646C54.4216 373.386 55.5536 372.755 57.0349 372.755ZM53.9534 380.091C53.9534 381.782 54.1072 383.105 54.4146 384.061L59.0683 374.854C58.5791 374.203 57.9013 373.878 57.0349 373.878C56.0706 373.878 55.316 374.39 54.771 375.415C54.2259 376.427 53.9534 377.985 53.9534 380.091ZM57.0349 386.305C58.0131 386.305 58.7748 385.8 59.3198 384.788C59.8648 383.763 60.1373 382.197 60.1373 380.091C60.1373 378.304 59.9627 376.919 59.6133 375.935L54.9596 385.225C55.4627 385.945 56.1545 386.305 57.0349 386.305Z" fill="url(#paint5_linear_122_130)" fill-opacity="0.6"/>
<path d="M58.2926 409.89H61.3741V410.992H53.3874V409.89H56.9511V398.21L53.5551 400.226L52.9682 399.291L57.1607 396.714H58.2926V409.89Z" fill="url(#paint6_linear_122_130)" fill-opacity="0.6"/>
<path d="M57.0349 420.257C58.5302 420.257 59.6622 420.888 60.4308 422.149C61.2134 423.396 61.6047 425.211 61.6047 427.594C61.6047 429.977 61.2134 431.798 60.4308 433.059C59.6622 434.32 58.5302 434.95 57.0349 434.95C55.5536 434.95 54.4216 434.32 53.639 433.059C52.8564 431.798 52.4651 429.977 52.4651 427.594C52.4651 425.224 52.8564 423.409 53.639 422.149C54.4216 420.888 55.5536 420.257 57.0349 420.257ZM53.9534 427.594C53.9534 429.284 54.1072 430.607 54.4146 431.563L59.0683 422.356C58.5791 421.705 57.9013 421.38 57.0349 421.38C56.0706 421.38 55.316 421.892 54.771 422.918C54.2259 423.929 53.9534 425.488 53.9534 427.594ZM57.0349 433.807C58.0131 433.807 58.7748 433.302 59.3198 432.29C59.8648 431.265 60.1373 429.699 60.1373 427.594C60.1373 425.806 59.9627 424.421 59.6133 423.437L54.9596 432.727C55.4627 433.447 56.1545 433.807 57.0349 433.807Z" fill="url(#paint7_linear_122_130)" fill-opacity="0.6"/>
<path d="M57.0349 444.008C58.5302 444.008 59.6622 444.639 60.4308 445.9C61.2134 447.147 61.6047 448.962 61.6047 451.345C61.6047 453.728 61.2134 455.549 60.4308 456.81C59.6622 458.071 58.5302 458.701 57.0349 458.701C55.5536 458.701 54.4216 458.071 53.639 456.81C52.8564 455.549 52.4651 453.728 52.4651 451.345C52.4651 448.975 52.8564 447.16 53.639 445.9C54.4216 444.639 55.5536 444.008 57.0349 444.008ZM53.9534 451.345C53.9534 453.035 54.1072 454.358 54.4146 455.314L59.0683 446.107C58.5791 445.456 57.9013 445.131 57.0349 445.131C56.0706 445.131 55.316 445.643 54.771 446.669C54.2259 447.68 53.9534 449.239 53.9534 451.345ZM57.0349 457.558C58.0131 457.558 58.7748 457.053 59.3198 456.041C59.8648 455.016 60.1373 453.451 60.1373 451.345C60.1373 449.557 59.9627 448.172 59.6133 447.188L54.9596 456.478C55.4627 457.198 56.1545 457.558 57.0349 457.558Z" fill="url(#paint8_linear_122_130)" fill-opacity="0.6"/>
<path d="M58.2926 481.143H61.3741V482.245H53.3874V481.143H56.9511V469.464L53.5551 471.48L52.9682 470.544L57.1607 467.967H58.2926V481.143Z" fill="url(#paint9_linear_122_130)" fill-opacity="0.6"/>
<path d="M57.0349 491.511C58.5302 491.511 59.6622 492.141 60.4308 493.402C61.2134 494.649 61.6047 496.464 61.6047 498.847C61.6047 501.23 61.2134 503.052 60.4308 504.312C59.6622 505.573 58.5302 506.204 57.0349 506.204C55.5536 506.204 54.4216 505.573 53.639 504.312C52.8564 503.052 52.4651 501.23 52.4651 498.847C52.4651 496.478 52.8564 494.663 53.639 493.402C54.4216 492.141 55.5536 491.511 57.0349 491.511ZM53.9534 498.847C53.9534 500.537 54.1072 501.86 54.4146 502.816L59.0683 493.61C58.5791 492.958 57.9013 492.633 57.0349 492.633C56.0706 492.633 55.316 493.145 54.771 494.171C54.2259 495.182 53.9534 496.741 53.9534 498.847ZM57.0349 505.061C58.0131 505.061 58.7748 504.555 59.3198 503.543C59.8648 502.518 60.1373 500.953 60.1373 498.847C60.1373 497.059 59.9627 495.674 59.6133 494.69L54.9596 503.98C55.4627 504.7 56.1545 505.061 57.0349 505.061Z" fill="url(#paint10_linear_122_130)" fill-opacity="0.6"/>
<path d="M58.2926 528.645H61.3741V529.747H53.3874V528.645H56.9511V516.966L53.5551 518.982L52.9682 518.046L57.1607 515.469H58.2926V528.645Z" fill="url(#paint11_linear_122_130)" fill-opacity="0.6"/>
<path d="M58.2926 552.396H61.3741V553.498H53.3874V552.396H56.9511V540.717L53.5551 542.733L52.9682 541.798L57.1607 539.221H58.2926V552.396Z" fill="url(#paint12_linear_122_130)" fill-opacity="0.6"/>
<path d="M95.9651 301.502C97.4604 301.502 98.5924 302.133 99.361 303.393C100.144 304.64 100.535 306.455 100.535 308.838C100.535 311.221 100.144 313.043 99.361 314.304C98.5924 315.565 97.4604 316.195 95.9651 316.195C94.4838 316.195 93.3518 315.565 92.5692 314.304C91.7866 313.043 91.3953 311.221 91.3953 308.838C91.3953 306.469 91.7866 304.654 92.5692 303.393C93.3518 302.133 94.4838 301.502 95.9651 301.502ZM92.8836 308.838C92.8836 310.529 93.0374 311.852 93.3448 312.808L97.9985 303.601C97.5093 302.95 96.8315 302.624 95.9651 302.624C95.0008 302.624 94.2462 303.137 93.7012 304.162C93.1561 305.174 92.8836 306.732 92.8836 308.838ZM95.9651 315.052C96.9433 315.052 97.705 314.546 98.25 313.535C98.795 312.51 99.0675 310.944 99.0675 308.838C99.0675 307.051 98.8928 305.665 98.5435 304.682L93.8898 313.971C94.3929 314.692 95.0847 315.052 95.9651 315.052Z" fill="url(#paint13_linear_122_130)" fill-opacity="0.6"/>
<path d="M97.2228 338.637H100.304V339.738H92.3176V338.637H95.8812V326.957L92.4853 328.973L91.8984 328.038L96.0909 325.461H97.2228V338.637Z" fill="url(#paint14_linear_122_130)" fill-opacity="0.6"/>
<path d="M95.9651 349.004C97.4604 349.004 98.5924 349.635 99.361 350.895C100.144 352.142 100.535 353.957 100.535 356.34C100.535 358.723 100.144 360.545 99.361 361.806C98.5924 363.067 97.4604 363.697 95.9651 363.697C94.4838 363.697 93.3518 363.067 92.5692 361.806C91.7866 360.545 91.3953 358.723 91.3953 356.34C91.3953 353.971 91.7866 352.156 92.5692 350.895C93.3518 349.635 94.4838 349.004 95.9651 349.004ZM92.8836 356.34C92.8836 358.031 93.0374 359.354 93.3448 360.31L97.9985 351.103C97.5093 350.452 96.8315 350.126 95.9651 350.126C95.0008 350.126 94.2462 350.639 93.7012 351.664C93.1561 352.676 92.8836 354.234 92.8836 356.34ZM95.9651 362.554C96.9433 362.554 97.705 362.049 98.25 361.037C98.795 360.012 99.0675 358.446 99.0675 356.34C99.0675 354.553 98.8928 353.168 98.5435 352.184L93.8898 361.474C94.3929 362.194 95.0847 362.554 95.9651 362.554Z" fill="url(#paint15_linear_122_130)" fill-opacity="0.6"/>
<path d="M95.9651 372.755C97.4604 372.755 98.5924 373.386 99.361 374.646C100.144 375.893 100.535 377.708 100.535 380.091C100.535 382.474 100.144 384.296 99.361 385.557C98.5924 386.818 97.4604 387.448 95.9651 387.448C94.4838 387.448 93.3518 386.818 92.5692 385.557C91.7866 384.296 91.3953 382.474 91.3953 380.091C91.3953 377.722 91.7866 375.907 92.5692 374.646C93.3518 373.386 94.4838 372.755 95.9651 372.755ZM92.8836 380.091C92.8836 381.782 93.0374 383.105 93.3448 384.061L97.9985 374.854C97.5093 374.203 96.8315 373.878 95.9651 373.878C95.0008 373.878 94.2462 374.39 93.7012 375.415C93.1561 376.427 92.8836 377.985 92.8836 380.091ZM95.9651 386.305C96.9433 386.305 97.705 385.8 98.25 384.788C98.795 383.763 99.0675 382.197 99.0675 380.091C99.0675 378.304 98.8928 376.919 98.5435 375.935L93.8898 385.225C94.3929 385.945 95.0847 386.305 95.9651 386.305Z" fill="url(#paint16_linear_122_130)" fill-opacity="0.6"/>
<path d="M97.2228 409.89H100.304V410.992H92.3176V409.89H95.8812V398.21L92.4853 400.226L91.8984 399.291L96.0909 396.714H97.2228V409.89Z" fill="url(#paint17_linear_122_130)" fill-opacity="0.6"/>
<path d="M95.9651 420.257C97.4604 420.257 98.5924 420.888 99.361 422.149C100.144 423.396 100.535 425.211 100.535 427.594C100.535 429.977 100.144 431.798 99.361 433.059C98.5924 434.32 97.4604 434.95 95.9651 434.95C94.4838 434.95 93.3518 434.32 92.5692 433.059C91.7866 431.798 91.3953 429.977 91.3953 427.594C91.3953 425.224 91.7866 423.409 92.5692 422.149C93.3518 420.888 94.4838 420.257 95.9651 420.257ZM92.8836 427.594C92.8836 429.284 93.0374 430.607 93.3448 431.563L97.9985 422.356C97.5093 421.705 96.8315 421.38 95.9651 421.38C95.0008 421.38 94.2462 421.892 93.7012 422.918C93.1561 423.929 92.8836 425.488 92.8836 427.594ZM95.9651 433.807C96.9433 433.807 97.705 433.302 98.25 432.29C98.795 431.265 99.0675 429.699 99.0675 427.594C99.0675 425.806 98.8928 424.421 98.5435 423.437L93.8898 432.727C94.3929 433.447 95.0847 433.807 95.9651 433.807Z" fill="url(#paint18_linear_122_130)" fill-opacity="0.6"/>
<path d="M97.2228 457.392H100.304V458.494H92.3176V457.392H95.8812V445.713L92.4853 447.728L91.8984 446.793L96.0909 444.216H97.2228V457.392Z" fill="url(#paint19_linear_122_130)" fill-opacity="0.6"/>
<path d="M95.9651 467.76C97.4604 467.76 98.5924 468.39 99.361 469.651C100.144 470.898 100.535 472.713 100.535 475.096C100.535 477.479 100.144 479.301 99.361 480.561C98.5924 481.822 97.4604 482.453 95.9651 482.453C94.4838 482.453 93.3518 481.822 92.5692 480.561C91.7866 479.301 91.3953 477.479 91.3953 475.096C91.3953 472.726 91.7866 470.911 92.5692 469.651C93.3518 468.39 94.4838 467.76 95.9651 467.76ZM92.8836 475.096C92.8836 476.786 93.0374 478.109 93.3448 479.065L97.9985 469.859C97.5093 469.207 96.8315 468.882 95.9651 468.882C95.0008 468.882 94.2462 469.394 93.7012 470.42C93.1561 471.431 92.8836 472.99 92.8836 475.096ZM95.9651 481.31C96.9433 481.31 97.705 480.804 98.25 479.792C98.795 478.767 99.0675 477.202 99.0675 475.096C99.0675 473.308 98.8928 471.923 98.5435 470.939L93.8898 480.229C94.3929 480.949 95.0847 481.31 95.9651 481.31Z" fill="url(#paint20_linear_122_130)" fill-opacity="0.6"/>
<path d="M95.9651 491.511C97.4604 491.511 98.5924 492.141 99.361 493.402C100.144 494.649 100.535 496.464 100.535 498.847C100.535 501.23 100.144 503.052 99.361 504.312C98.5924 505.573 97.4604 506.204 95.9651 506.204C94.4838 506.204 93.3518 505.573 92.5692 504.312C91.7866 503.052 91.3953 501.23 91.3953 498.847C91.3953 496.478 91.7866 494.663 92.5692 493.402C93.3518 492.141 94.4838 491.511 95.9651 491.511ZM92.8836 498.847C92.8836 500.537 93.0374 501.86 93.3448 502.816L97.9985 493.61C97.5093 492.958 96.8315 492.633 95.9651 492.633C95.0008 492.633 94.2462 493.145 93.7012 494.171C93.1561 495.182 92.8836 496.741 92.8836 498.847ZM95.9651 505.061C96.9433 505.061 97.705 504.555 98.25 503.543C98.795 502.518 99.0675 500.953 99.0675 498.847C99.0675 497.059 98.8928 495.674 98.5435 494.69L93.8898 503.98C94.3929 504.7 95.0847 505.061 95.9651 505.061Z" fill="url(#paint21_linear_122_130)" fill-opacity="0.6"/>
<path d="M97.2228 528.645H100.304V529.747H92.3176V528.645H95.8812V516.966L92.4853 518.982L91.8984 518.046L96.0909 515.469H97.2228V528.645Z" fill="url(#paint22_linear_122_130)" fill-opacity="0.6"/>
<path d="M95.9651 539.013C97.4604 539.013 98.5924 539.643 99.361 540.904C100.144 542.151 100.535 543.966 100.535 546.349C100.535 548.732 100.144 550.554 99.361 551.815C98.5924 553.075 97.4604 553.706 95.9651 553.706C94.4838 553.706 93.3518 553.075 92.5692 551.815C91.7866 550.554 91.3953 548.732 91.3953 546.349C91.3953 543.98 91.7866 542.165 92.5692 540.904C93.3518 539.643 94.4838 539.013 95.9651 539.013ZM92.8836 546.349C92.8836 548.039 93.0374 549.362 93.3448 550.318L97.9985 541.112C97.5093 540.461 96.8315 540.135 95.9651 540.135C95.0008 540.135 94.2462 540.648 93.7012 541.673C93.1561 542.684 92.8836 544.243 92.8836 546.349ZM95.9651 552.563C96.9433 552.563 97.705 552.057 98.25 551.046C98.795 550.02 99.0675 548.455 99.0675 546.349C99.0675 544.562 98.8928 543.176 98.5435 542.192L93.8898 551.482C94.3929 552.202 95.0847 552.563 95.9651 552.563Z" fill="url(#paint23_linear_122_130)" fill-opacity="0.6"/>
<path d="M97.2228 576.148H100.304V577.249H92.3176V576.148H95.8812V564.468L92.4853 566.484L91.8984 565.549L96.0909 562.972H97.2228V576.148Z" fill="url(#paint24_linear_122_130)" fill-opacity="0.6"/>
<path d="M97.2228 599.899H100.304V601H92.3176V599.899H95.8812V588.219L92.4853 590.235L91.8984 589.3L96.0909 586.723H97.2228V599.899Z" fill="url(#paint25_linear_122_130)" fill-opacity="0.6"/>
<path d="M37.5698 325.253C39.0651 325.253 40.1971 325.884 40.9657 327.144C41.7483 328.391 42.1396 330.206 42.1396 332.589C42.1396 334.972 41.7483 336.794 40.9657 338.055C40.1971 339.316 39.0651 339.946 37.5698 339.946C36.0885 339.946 34.9565 339.316 34.1739 338.055C33.3913 336.794 33 334.972 33 332.589C33 330.22 33.3913 328.405 34.1739 327.144C34.9565 325.884 36.0885 325.253 37.5698 325.253ZM34.4883 332.589C34.4883 334.28 34.6421 335.603 34.9495 336.559L39.6032 327.352C39.114 326.701 38.4363 326.375 37.5698 326.375C36.6055 326.375 35.8509 326.888 35.3059 327.913C34.7608 328.925 34.4883 330.483 34.4883 332.589ZM37.5698 338.803C38.5481 338.803 39.3097 338.297 39.8547 337.286C40.3997 336.261 40.6722 334.695 40.6722 332.589C40.6722 330.802 40.4976 329.417 40.1482 328.433L35.4945 337.722C35.9976 338.443 36.6894 338.803 37.5698 338.803Z" fill="url(#paint26_linear_122_130)" fill-opacity="0.6"/>
<path d="M37.5698 349.004C39.0651 349.004 40.1971 349.635 40.9657 350.895C41.7483 352.142 42.1396 353.957 42.1396 356.34C42.1396 358.723 41.7483 360.545 40.9657 361.806C40.1971 363.067 39.0651 363.697 37.5698 363.697C36.0885 363.697 34.9565 363.067 34.1739 361.806C33.3913 360.545 33 358.723 33 356.34C33 353.971 33.3913 352.156 34.1739 350.895C34.9565 349.635 36.0885 349.004 37.5698 349.004ZM34.4883 356.34C34.4883 358.031 34.6421 359.354 34.9495 360.31L39.6032 351.103C39.114 350.452 38.4363 350.126 37.5698 350.126C36.6055 350.126 35.8509 350.639 35.3059 351.664C34.7608 352.676 34.4883 354.234 34.4883 356.34ZM37.5698 362.554C38.5481 362.554 39.3097 362.049 39.8547 361.037C40.3997 360.012 40.6722 358.446 40.6722 356.34C40.6722 354.553 40.4976 353.168 40.1482 352.184L35.4945 361.474C35.9976 362.194 36.6894 362.554 37.5698 362.554Z" fill="url(#paint27_linear_122_130)" fill-opacity="0.6"/>
<path d="M38.8276 386.139H41.909V387.24H33.9223V386.139H37.486V374.459L34.09 376.475L33.5031 375.54L37.6956 372.963H38.8276V386.139Z" fill="url(#paint28_linear_122_130)" fill-opacity="0.6"/>
<path d="M37.5698 396.506C39.0651 396.506 40.1971 397.137 40.9657 398.398C41.7483 399.644 42.1396 401.459 42.1396 403.842C42.1396 406.225 41.7483 408.047 40.9657 409.308C40.1971 410.569 39.0651 411.199 37.5698 411.199C36.0885 411.199 34.9565 410.569 34.1739 409.308C33.3913 408.047 33 406.225 33 403.842C33 401.473 33.3913 399.658 34.1739 398.398C34.9565 397.137 36.0885 396.506 37.5698 396.506ZM34.4883 403.842C34.4883 405.533 34.6421 406.856 34.9495 407.812L39.6032 398.605C39.114 397.954 38.4363 397.629 37.5698 397.629C36.6055 397.629 35.8509 398.141 35.3059 399.166C34.7608 400.178 34.4883 401.737 34.4883 403.842ZM37.5698 410.056C38.5481 410.056 39.3097 409.551 39.8547 408.539C40.3997 407.514 40.6722 405.948 40.6722 403.842C40.6722 402.055 40.4976 400.67 40.1482 399.686L35.4945 408.976C35.9976 409.696 36.6894 410.056 37.5698 410.056Z" fill="url(#paint29_linear_122_130)" fill-opacity="0.6"/>
<path d="M38.8276 433.641H41.909V434.743H33.9223V433.641H37.486V421.962L34.09 423.977L33.5031 423.042L37.6956 420.465H38.8276V433.641Z" fill="url(#paint30_linear_122_130)" fill-opacity="0.6"/>
<path d="M38.8276 457.392H41.909V458.494H33.9223V457.392H37.486V445.713L34.09 447.728L33.5031 446.793L37.6956 444.216H38.8276V457.392Z" fill="url(#paint31_linear_122_130)" fill-opacity="0.6"/>
<path d="M77.7577 291.135H80.8392V292.236H72.8525V291.135H76.4162V279.455L73.0202 281.471L72.4333 280.536L76.6258 277.959H77.7577V291.135Z" fill="url(#paint32_linear_122_130)" fill-opacity="0.6"/>
<path d="M76.5 301.502C77.9953 301.502 79.1273 302.133 79.8959 303.393C80.6785 304.64 81.0698 306.455 81.0698 308.838C81.0698 311.221 80.6785 313.043 79.8959 314.304C79.1273 315.565 77.9953 316.195 76.5 316.195C75.0187 316.195 73.8867 315.565 73.1041 314.304C72.3215 313.043 71.9302 311.221 71.9302 308.838C71.9302 306.469 72.3215 304.654 73.1041 303.393C73.8867 302.133 75.0187 301.502 76.5 301.502ZM73.4185 308.838C73.4185 310.529 73.5723 311.852 73.8797 312.808L78.5334 303.601C78.0442 302.95 77.3664 302.624 76.5 302.624C75.5357 302.624 74.7811 303.137 74.2361 304.162C73.691 305.174 73.4185 306.732 73.4185 308.838ZM76.5 315.052C77.4782 315.052 78.2399 314.546 78.7849 313.535C79.3299 312.51 79.6024 310.944 79.6024 308.838C79.6024 307.051 79.4277 305.665 79.0784 304.682L74.4247 313.971C74.9278 314.692 75.6196 315.052 76.5 315.052Z" fill="url(#paint33_linear_122_130)" fill-opacity="0.6"/>
<path d="M77.7577 338.637H80.8392V339.738H72.8525V338.637H76.4162V326.957L73.0202 328.973L72.4333 328.038L76.6258 325.461H77.7577V338.637Z" fill="url(#paint34_linear_122_130)" fill-opacity="0.6"/>
<path d="M77.7577 362.388H80.8392V363.489H72.8525V362.388H76.4162V350.708L73.0202 352.724L72.4333 351.789L76.6258 349.212H77.7577V362.388Z" fill="url(#paint35_linear_122_130)" fill-opacity="0.6"/>
<path d="M76.5 372.755C77.9953 372.755 79.1273 373.386 79.8959 374.646C80.6785 375.893 81.0698 377.708 81.0698 380.091C81.0698 382.474 80.6785 384.296 79.8959 385.557C79.1273 386.818 77.9953 387.448 76.5 387.448C75.0187 387.448 73.8867 386.818 73.1041 385.557C72.3215 384.296 71.9302 382.474 71.9302 380.091C71.9302 377.722 72.3215 375.907 73.1041 374.646C73.8867 373.386 75.0187 372.755 76.5 372.755ZM73.4185 380.091C73.4185 381.782 73.5723 383.105 73.8797 384.061L78.5334 374.854C78.0442 374.203 77.3664 373.878 76.5 373.878C75.5357 373.878 74.7811 374.39 74.2361 375.415C73.691 376.427 73.4185 377.985 73.4185 380.091ZM76.5 386.305C77.4782 386.305 78.2399 385.8 78.7849 384.788C79.3299 383.763 79.6024 382.197 79.6024 380.091C79.6024 378.304 79.4277 376.919 79.0784 375.935L74.4247 385.225C74.9278 385.945 75.6196 386.305 76.5 386.305Z" fill="url(#paint36_linear_122_130)" fill-opacity="0.6"/>
<path d="M77.7577 409.89H80.8392V410.992H72.8525V409.89H76.4162V398.21L73.0202 400.226L72.4333 399.291L76.6258 396.714H77.7577V409.89Z" fill="url(#paint37_linear_122_130)" fill-opacity="0.6"/>
<path d="M77.7577 433.641H80.8392V434.743H72.8525V433.641H76.4162V421.962L73.0202 423.977L72.4333 423.042L76.6258 420.465H77.7577V433.641Z" fill="url(#paint38_linear_122_130)" fill-opacity="0.6"/>
<path d="M76.5 444.008C77.9953 444.008 79.1273 444.639 79.8959 445.9C80.6785 447.147 81.0698 448.962 81.0698 451.345C81.0698 453.728 80.6785 455.549 79.8959 456.81C79.1273 458.071 77.9953 458.701 76.5 458.701C75.0187 458.701 73.8867 458.071 73.1041 456.81C72.3215 455.549 71.9302 453.728 71.9302 451.345C71.9302 448.975 72.3215 447.16 73.1041 445.9C73.8867 444.639 75.0187 444.008 76.5 444.008ZM73.4185 451.345C73.4185 453.035 73.5723 454.358 73.8797 455.314L78.5334 446.107C78.0442 445.456 77.3664 445.131 76.5 445.131C75.5357 445.131 74.7811 445.643 74.2361 446.669C73.691 447.68 73.4185 449.239 73.4185 451.345ZM76.5 457.558C77.4782 457.558 78.2399 457.053 78.7849 456.041C79.3299 455.016 79.6024 453.451 79.6024 451.345C79.6024 449.557 79.4277 448.172 79.0784 447.188L74.4247 456.478C74.9278 457.198 75.6196 457.558 76.5 457.558Z" fill="url(#paint39_linear_122_130)" fill-opacity="0.6"/>
<path d="M77.7577 481.143H80.8392V482.245H72.8525V481.143H76.4162V469.464L73.0202 471.48L72.4333 470.544L76.6258 467.967H77.7577V481.143Z" fill="url(#paint40_linear_122_130)" fill-opacity="0.6"/>
<path d="M76.5 491.511C77.9953 491.511 79.1273 492.141 79.8959 493.402C80.6785 494.649 81.0698 496.464 81.0698 498.847C81.0698 501.23 80.6785 503.052 79.8959 504.312C79.1273 505.573 77.9953 506.204 76.5 506.204C75.0187 506.204 73.8867 505.573 73.1041 504.312C72.3215 503.052 71.9302 501.23 71.9302 498.847C71.9302 496.478 72.3215 494.663 73.1041 493.402C73.8867 492.141 75.0187 491.511 76.5 491.511ZM73.4185 498.847C73.4185 500.537 73.5723 501.86 73.8797 502.816L78.5334 493.61C78.0442 492.958 77.3664 492.633 76.5 492.633C75.5357 492.633 74.7811 493.145 74.2361 494.171C73.691 495.182 73.4185 496.741 73.4185 498.847ZM76.5 505.061C77.4782 505.061 78.2399 504.555 78.7849 503.543C79.3299 502.518 79.6024 500.953 79.6024 498.847C79.6024 497.059 79.4277 495.674 79.0784 494.69L74.4247 503.98C74.9278 504.7 75.6196 505.061 76.5 505.061Z" fill="url(#paint41_linear_122_130)" fill-opacity="0.6"/>
<path d="M115.43 277.751C116.926 277.751 118.057 278.381 118.826 279.642C119.609 280.889 120 282.704 120 285.087C120 287.47 119.609 289.292 118.826 290.553C118.057 291.814 116.926 292.444 115.43 292.444C113.949 292.444 112.817 291.814 112.034 290.553C111.252 289.292 110.86 287.47 110.86 285.087C110.86 282.718 111.252 280.903 112.034 279.642C112.817 278.381 113.949 277.751 115.43 277.751ZM112.349 285.087C112.349 286.777 112.502 288.101 112.81 289.057L117.464 279.85C116.974 279.199 116.297 278.873 115.43 278.873C114.466 278.873 113.711 279.386 113.166 280.411C112.621 281.423 112.349 282.981 112.349 285.087ZM115.43 291.301C116.408 291.301 117.17 290.795 117.715 289.784C118.26 288.759 118.533 287.193 118.533 285.087C118.533 283.3 118.358 281.914 118.009 280.931L113.355 290.22C113.858 290.941 114.55 291.301 115.43 291.301Z" fill="url(#paint42_linear_122_130)" fill-opacity="0.6"/>
<path d="M116.688 314.886H119.769V315.987H111.783V314.886H115.346V303.206L111.95 305.222L111.363 304.287L115.556 301.71H116.688V314.886Z" fill="url(#paint43_linear_122_130)" fill-opacity="0.6"/>
<path d="M116.688 338.637H119.769V339.738H111.783V338.637H115.346V326.957L111.95 328.973L111.363 328.038L115.556 325.461H116.688V338.637Z" fill="url(#paint44_linear_122_130)" fill-opacity="0.6"/>
<path d="M115.43 349.004C116.926 349.004 118.057 349.635 118.826 350.895C119.609 352.142 120 353.957 120 356.34C120 358.723 119.609 360.545 118.826 361.806C118.057 363.067 116.926 363.697 115.43 363.697C113.949 363.697 112.817 363.067 112.034 361.806C111.252 360.545 110.86 358.723 110.86 356.34C110.86 353.971 111.252 352.156 112.034 350.895C112.817 349.635 113.949 349.004 115.43 349.004ZM112.349 356.34C112.349 358.031 112.502 359.354 112.81 360.31L117.464 351.103C116.974 350.452 116.297 350.126 115.43 350.126C114.466 350.126 113.711 350.639 113.166 351.664C112.621 352.676 112.349 354.234 112.349 356.34ZM115.43 362.554C116.408 362.554 117.17 362.049 117.715 361.037C118.26 360.012 118.533 358.446 118.533 356.34C118.533 354.553 118.358 353.168 118.009 352.184L113.355 361.474C113.858 362.194 114.55 362.554 115.43 362.554Z" fill="url(#paint45_linear_122_130)" fill-opacity="0.6"/>
<path d="M115.43 372.755C116.926 372.755 118.057 373.386 118.826 374.646C119.609 375.893 120 377.708 120 380.091C120 382.474 119.609 384.296 118.826 385.557C118.057 386.818 116.926 387.448 115.43 387.448C113.949 387.448 112.817 386.818 112.034 385.557C111.252 384.296 110.86 382.474 110.86 380.091C110.86 377.722 111.252 375.907 112.034 374.646C112.817 373.386 113.949 372.755 115.43 372.755ZM112.349 380.091C112.349 381.782 112.502 383.105 112.81 384.061L117.464 374.854C116.974 374.203 116.297 373.878 115.43 373.878C114.466 373.878 113.711 374.39 113.166 375.415C112.621 376.427 112.349 377.985 112.349 380.091ZM115.43 386.305C116.408 386.305 117.17 385.8 117.715 384.788C118.26 383.763 118.533 382.197 118.533 380.091C118.533 378.304 118.358 376.919 118.009 375.935L113.355 385.225C113.858 385.945 114.55 386.305 115.43 386.305Z" fill="url(#paint46_linear_122_130)" fill-opacity="0.6"/>
<g opacity="0.6">
<path d="M943.93 -46C945.356 -46 946.436 -45.395 947.17 -44.1851C947.916 -42.9885 948.29 -41.2468 948.29 -38.9599C948.29 -36.673 947.916 -34.9246 947.17 -33.7147C946.436 -32.5048 945.356 -31.8998 943.93 -31.8998C942.517 -31.8998 941.437 -32.5048 940.69 -33.7147C939.943 -34.9246 939.57 -36.673 939.57 -38.9599C939.57 -41.2335 939.943 -42.9752 940.69 -44.1851C941.437 -45.395 942.517 -46 943.93 -46ZM940.99 -38.9599C940.99 -37.3378 941.137 -36.068 941.43 -35.1506L945.87 -43.9857C945.403 -44.6106 944.756 -44.923 943.93 -44.923C943.01 -44.923 942.29 -44.4311 941.77 -43.4472C941.25 -42.4766 940.99 -40.9808 940.99 -38.9599ZM943.93 -32.9967C944.863 -32.9967 945.59 -33.482 946.11 -34.4526C946.63 -35.4365 946.89 -36.9389 946.89 -38.9599C946.89 -40.675 946.723 -42.0046 946.39 -42.9486L941.95 -34.0338C942.43 -33.3424 943.09 -32.9967 943.93 -32.9967Z" fill="url(#paint47_linear_122_130)"/>
<path d="M945.13 -10.3635H948.07V-9.30644H940.45V-10.3635H943.85V-21.5718L940.61 -19.6373L940.05 -20.5347L944.05 -23.0078H945.13V-10.3635Z" fill="url(#paint48_linear_122_130)"/>
<path d="M943.93 -0.414395C945.356 -0.414395 946.436 0.190567 947.17 1.40048C947.916 2.59711 948.29 4.33886 948.29 6.62573C948.29 8.91261 947.916 10.661 947.17 11.8709C946.436 13.0808 945.356 13.6858 943.93 13.6858C942.517 13.6858 941.437 13.0808 940.69 11.8709C939.943 10.661 939.57 8.91261 939.57 6.62573C939.57 4.35215 939.943 2.6104 940.69 1.40048C941.437 0.190567 942.517 -0.414395 943.93 -0.414395ZM940.99 6.62573C940.99 8.24782 941.137 9.51757 941.43 10.435L945.87 1.59992C945.403 0.975018 944.756 0.662564 943.93 0.662564C943.01 0.662564 942.29 1.15451 941.77 2.1384C941.25 3.10899 940.99 4.60477 940.99 6.62573ZM943.93 12.5889C944.863 12.5889 945.59 12.1036 946.11 11.133C946.63 10.1491 946.89 8.6467 946.89 6.62573C946.89 4.91057 946.723 3.58099 946.39 2.63699L941.95 11.5518C942.43 12.2432 943.09 12.5889 943.93 12.5889Z" fill="url(#paint49_linear_122_130)"/>
<path d="M945.13 35.2221H948.07V36.2792H940.45V35.2221H943.85V24.0138L940.61 25.9483L940.05 25.0509L944.05 22.5778H945.13V35.2221Z" fill="url(#paint50_linear_122_130)"/>
<path d="M945.13 58.015H948.07V59.072H940.45V58.015H943.85V46.8066L940.61 48.7411L940.05 47.8437L944.05 45.3706H945.13V58.015Z" fill="url(#paint51_linear_122_130)"/>
<path d="M943.93 67.964C945.356 67.964 946.436 68.569 947.17 69.7789C947.916 70.9755 948.29 72.7173 948.29 75.0041C948.29 77.291 947.916 79.0394 947.17 80.2493C946.436 81.4593 945.356 82.0642 943.93 82.0642C942.517 82.0642 941.437 81.4593 940.69 80.2493C939.943 79.0394 939.57 77.291 939.57 75.0041C939.57 72.7306 939.943 70.9888 940.69 69.7789C941.437 68.569 942.517 67.964 943.93 67.964ZM940.99 75.0041C940.99 76.6262 941.137 77.896 941.43 78.8134L945.87 69.9783C945.403 69.3534 944.756 69.041 943.93 69.041C943.01 69.041 942.29 69.5329 941.77 70.5168C941.25 71.4874 940.99 72.9832 940.99 75.0041ZM943.93 80.9673C944.863 80.9673 945.59 80.482 946.11 79.5114C946.63 78.5275 946.89 77.0251 946.89 75.0041C946.89 73.289 946.723 71.9594 946.39 71.0154L941.95 79.9302C942.43 80.6216 943.09 80.9673 943.93 80.9673Z" fill="url(#paint52_linear_122_130)"/>
<path d="M945.13 103.601H948.07V104.658H940.45V103.601H943.85V92.3922L940.61 94.3267L940.05 93.4293L944.05 90.9562H945.13V103.601Z" fill="url(#paint53_linear_122_130)"/>
<path d="M943.93 113.55C945.356 113.55 946.436 114.155 947.17 115.365C947.916 116.561 948.29 118.303 948.29 120.59C948.29 122.877 947.916 124.625 947.17 125.835C946.436 127.045 945.356 127.65 943.93 127.65C942.517 127.65 941.437 127.045 940.69 125.835C939.943 124.625 939.57 122.877 939.57 120.59C939.57 118.316 939.943 116.574 940.69 115.365C941.437 114.155 942.517 113.55 943.93 113.55ZM940.99 120.59C940.99 122.212 941.137 123.482 941.43 124.399L945.87 115.564C945.403 114.939 944.756 114.627 943.93 114.627C943.01 114.627 942.29 115.119 941.77 116.102C941.25 117.073 940.99 118.569 940.99 120.59ZM943.93 126.553C944.863 126.553 945.59 126.068 946.11 125.097C946.63 124.113 946.89 122.611 946.89 120.59C946.89 118.875 946.723 117.545 946.39 116.601L941.95 125.516C942.43 126.207 943.09 126.553 943.93 126.553Z" fill="url(#paint54_linear_122_130)"/>
<path d="M943.93 136.342C945.356 136.342 946.436 136.947 947.17 138.157C947.916 139.354 948.29 141.096 948.29 143.383C948.29 145.669 947.916 147.418 947.17 148.628C946.436 149.838 945.356 150.443 943.93 150.443C942.517 150.443 941.437 149.838 940.69 148.628C939.943 147.418 939.57 145.669 939.57 143.383C939.57 141.109 939.943 139.367 940.69 138.157C941.437 136.947 942.517 136.342 943.93 136.342ZM940.99 143.383C940.99 145.005 941.137 146.274 941.43 147.192L945.87 138.357C945.403 137.732 944.756 137.419 943.93 137.419C943.01 137.419 942.29 137.911 941.77 138.895C941.25 139.866 940.99 141.362 940.99 143.383ZM943.93 149.346C944.863 149.346 945.59 148.86 946.11 147.89C946.63 146.906 946.89 145.404 946.89 143.383C946.89 141.667 946.723 140.338 946.39 139.394L941.95 148.309C942.43 149 943.09 149.346 943.93 149.346Z" fill="url(#paint55_linear_122_130)"/>
<path d="M945.13 171.979H948.07V173.036H940.45V171.979H943.85V160.771L940.61 162.705L940.05 161.808L944.05 159.335H945.13V171.979Z" fill="url(#paint56_linear_122_130)"/>
<path d="M943.93 181.928C945.356 181.928 946.436 182.533 947.17 183.743C947.916 184.94 948.29 186.681 948.29 188.968C948.29 191.255 947.916 193.003 947.17 194.213C946.436 195.423 945.356 196.028 943.93 196.028C942.517 196.028 941.437 195.423 940.69 194.213C939.943 193.003 939.57 191.255 939.57 188.968C939.57 186.695 939.943 184.953 940.69 183.743C941.437 182.533 942.517 181.928 943.93 181.928ZM940.99 188.968C940.99 190.59 941.137 191.86 941.43 192.777L945.87 183.942C945.403 183.317 944.756 183.005 943.93 183.005C943.01 183.005 942.29 183.497 941.77 184.481C941.25 185.451 940.99 186.947 940.99 188.968ZM943.93 194.931C944.863 194.931 945.59 194.446 946.11 193.475C946.63 192.492 946.89 190.989 946.89 188.968C946.89 187.253 946.723 185.923 946.39 184.979L941.95 193.894C942.43 194.586 943.09 194.931 943.93 194.931Z" fill="url(#paint57_linear_122_130)"/>
<path d="M945.13 217.565H948.07V218.622H940.45V217.565H943.85V206.356L940.61 208.291L940.05 207.393L944.05 204.92H945.13V217.565Z" fill="url(#paint58_linear_122_130)"/>
<path d="M945.13 240.357H948.07V241.414H940.45V240.357H943.85V229.149L940.61 231.084L940.05 230.186L944.05 227.713H945.13V240.357Z" fill="url(#paint59_linear_122_130)"/>
<path d="M981.07 -0.414395C982.497 -0.414395 983.577 0.190567 984.31 1.40048C985.057 2.59711 985.43 4.33886 985.43 6.62573C985.43 8.91261 985.057 10.661 984.31 11.8709C983.577 13.0808 982.497 13.6858 981.07 13.6858C979.657 13.6858 978.577 13.0808 977.83 11.8709C977.084 10.661 976.71 8.91261 976.71 6.62573C976.71 4.35215 977.084 2.6104 977.83 1.40048C978.577 0.190567 979.657 -0.414395 981.07 -0.414395ZM978.13 6.62573C978.13 8.24782 978.277 9.51757 978.57 10.435L983.01 1.59992C982.543 0.975018 981.897 0.662564 981.07 0.662564C980.15 0.662564 979.43 1.15451 978.91 2.1384C978.39 3.10899 978.13 4.60477 978.13 6.62573ZM981.07 12.5889C982.003 12.5889 982.73 12.1036 983.25 11.133C983.77 10.1491 984.03 8.6467 984.03 6.62573C984.03 4.91057 983.863 3.58099 983.53 2.63699L979.09 11.5518C979.57 12.2432 980.23 12.5889 981.07 12.5889Z" fill="url(#paint60_linear_122_130)"/>
<path d="M982.27 35.2221H985.21V36.2792H977.59V35.2221H980.99V24.0138L977.75 25.9483L977.19 25.0509L981.19 22.5778H982.27V35.2221Z" fill="url(#paint61_linear_122_130)"/>
<path d="M981.07 45.1712C982.497 45.1712 983.577 45.7762 984.31 46.9861C985.057 48.1827 985.43 49.9245 985.43 52.2113C985.43 54.4982 985.057 56.2466 984.31 57.4565C983.577 58.6664 982.497 59.2714 981.07 59.2714C979.657 59.2714 978.577 58.6664 977.83 57.4565C977.084 56.2466 976.71 54.4982 976.71 52.2113C976.71 49.9378 977.084 48.196 977.83 46.9861C978.577 45.7762 979.657 45.1712 981.07 45.1712ZM978.13 52.2113C978.13 53.8334 978.277 55.1032 978.57 56.0206L983.01 47.1855C982.543 46.5606 981.897 46.2482 981.07 46.2482C980.15 46.2482 979.43 46.7401 978.91 47.724C978.39 48.6946 978.13 50.1904 978.13 52.2113ZM981.07 58.1745C982.003 58.1745 982.73 57.6892 983.25 56.7186C983.77 55.7347 984.03 54.2323 984.03 52.2113C984.03 50.4962 983.863 49.1666 983.53 48.2226L979.09 57.1374C979.57 57.8288 980.23 58.1745 981.07 58.1745Z" fill="url(#paint62_linear_122_130)"/>
<path d="M981.07 67.964C982.497 67.964 983.577 68.569 984.31 69.7789C985.057 70.9755 985.43 72.7173 985.43 75.0041C985.43 77.291 985.057 79.0394 984.31 80.2493C983.577 81.4593 982.497 82.0642 981.07 82.0642C979.657 82.0642 978.577 81.4593 977.83 80.2493C977.084 79.0394 976.71 77.291 976.71 75.0041C976.71 72.7306 977.084 70.9888 977.83 69.7789C978.577 68.569 979.657 67.964 981.07 67.964ZM978.13 75.0041C978.13 76.6262 978.277 77.896 978.57 78.8134L983.01 69.9783C982.543 69.3534 981.897 69.041 981.07 69.041C980.15 69.041 979.43 69.5329 978.91 70.5168C978.39 71.4874 978.13 72.9832 978.13 75.0041ZM981.07 80.9673C982.003 80.9673 982.73 80.482 983.25 79.5114C983.77 78.5275 984.03 77.0251 984.03 75.0041C984.03 73.289 983.863 71.9594 983.53 71.0154L979.09 79.9302C979.57 80.6216 980.23 80.9673 981.07 80.9673Z" fill="url(#paint63_linear_122_130)"/>
<path d="M982.27 103.601H985.21V104.658H977.59V103.601H980.99V92.3922L977.75 94.3267L977.19 93.4293L981.19 90.9562H982.27V103.601Z" fill="url(#paint64_linear_122_130)"/>
<path d="M981.07 113.55C982.497 113.55 983.577 114.155 984.31 115.365C985.057 116.561 985.43 118.303 985.43 120.59C985.43 122.877 985.057 124.625 984.31 125.835C983.577 127.045 982.497 127.65 981.07 127.65C979.657 127.65 978.577 127.045 977.83 125.835C977.084 124.625 976.71 122.877 976.71 120.59C976.71 118.316 977.084 116.574 977.83 115.365C978.577 114.155 979.657 113.55 981.07 113.55ZM978.13 120.59C978.13 122.212 978.277 123.482 978.57 124.399L983.01 115.564C982.543 114.939 981.897 114.627 981.07 114.627C980.15 114.627 979.43 115.119 978.91 116.102C978.39 117.073 978.13 118.569 978.13 120.59ZM981.07 126.553C982.003 126.553 982.73 126.068 983.25 125.097C983.77 124.113 984.03 122.611 984.03 120.59C984.03 118.875 983.863 117.545 983.53 116.601L979.09 125.516C979.57 126.207 980.23 126.553 981.07 126.553Z" fill="url(#paint65_linear_122_130)"/>
<path d="M982.27 149.186H985.21V150.243H977.59V149.186H980.99V137.978L977.75 139.912L977.19 139.015L981.19 136.542H982.27V149.186Z" fill="url(#paint66_linear_122_130)"/>
<path d="M981.07 159.135C982.497 159.135 983.577 159.74 984.31 160.95C985.057 162.147 985.43 163.888 985.43 166.175C985.43 168.462 985.057 170.211 984.31 171.421C983.577 172.63 982.497 173.235 981.07 173.235C979.657 173.235 978.577 172.63 977.83 171.421C977.084 170.211 976.71 168.462 976.71 166.175C976.71 163.902 977.084 162.16 977.83 160.95C978.577 159.74 979.657 159.135 981.07 159.135ZM978.13 166.175C978.13 167.797 978.277 169.067 978.57 169.985L983.01 161.15C982.543 160.525 981.897 160.212 981.07 160.212C980.15 160.212 979.43 160.704 978.91 161.688C978.39 162.659 978.13 164.154 978.13 166.175ZM981.07 172.139C982.003 172.139 982.73 171.653 983.25 170.683C983.77 169.699 984.03 168.196 984.03 166.175C984.03 164.46 983.863 163.131 983.53 162.187L979.09 171.101C979.57 171.793 980.23 172.139 981.07 172.139Z" fill="url(#paint67_linear_122_130)"/>
<path d="M981.07 181.928C982.497 181.928 983.577 182.533 984.31 183.743C985.057 184.94 985.43 186.681 985.43 188.968C985.43 191.255 985.057 193.003 984.31 194.213C983.577 195.423 982.497 196.028 981.07 196.028C979.657 196.028 978.577 195.423 977.83 194.213C977.084 193.003 976.71 191.255 976.71 188.968C976.71 186.695 977.084 184.953 977.83 183.743C978.577 182.533 979.657 181.928 981.07 181.928ZM978.13 188.968C978.13 190.59 978.277 191.86 978.57 192.777L983.01 183.942C982.543 183.317 981.897 183.005 981.07 183.005C980.15 183.005 979.43 183.497 978.91 184.481C978.39 185.451 978.13 186.947 978.13 188.968ZM981.07 194.931C982.003 194.931 982.73 194.446 983.25 193.475C983.77 192.492 984.03 190.989 984.03 188.968C984.03 187.253 983.863 185.923 983.53 184.979L979.09 193.894C979.57 194.586 980.23 194.931 981.07 194.931Z" fill="url(#paint68_linear_122_130)"/>
<path d="M982.27 217.565H985.21V218.622H977.59V217.565H980.99V206.356L977.75 208.291L977.19 207.393L981.19 204.92H982.27V217.565Z" fill="url(#paint69_linear_122_130)"/>
<path d="M981.07 227.514C982.497 227.514 983.577 228.119 984.31 229.329C985.057 230.525 985.43 232.267 985.43 234.554C985.43 236.841 985.057 238.589 984.31 239.799C983.577 241.009 982.497 241.614 981.07 241.614C979.657 241.614 978.577 241.009 977.83 239.799C977.084 238.589 976.71 236.841 976.71 234.554C976.71 232.28 977.084 230.538 977.83 229.329C978.577 228.119 979.657 227.514 981.07 227.514ZM978.13 234.554C978.13 236.176 978.277 237.446 978.57 238.363L983.01 229.528C982.543 228.903 981.897 228.591 981.07 228.591C980.15 228.591 979.43 229.083 978.91 230.066C978.39 231.037 978.13 232.533 978.13 234.554ZM981.07 240.517C982.003 240.517 982.73 240.032 983.25 239.061C983.77 238.077 984.03 236.575 984.03 234.554C984.03 232.839 983.863 231.509 983.53 230.565L979.09 239.48C979.57 240.171 980.23 240.517 981.07 240.517Z" fill="url(#paint70_linear_122_130)"/>
<path d="M982.27 263.15H985.21V264.207H977.59V263.15H980.99V251.942L977.75 253.876L977.19 252.979L981.19 250.506H982.27V263.15Z" fill="url(#paint71_linear_122_130)"/>
<path d="M982.27 285.943H985.21V287H977.59V285.943H980.99V274.735L977.75 276.669L977.19 275.772L981.19 273.299H982.27V285.943Z" fill="url(#paint72_linear_122_130)"/>
<path d="M925.36 22.3784C926.786 22.3784 927.866 22.9834 928.599 24.1933C929.346 25.3899 929.719 27.1317 929.719 29.4185C929.719 31.7054 929.346 33.4538 928.599 34.6637C927.866 35.8736 926.786 36.4786 925.36 36.4786C923.946 36.4786 922.867 35.8736 922.12 34.6637C921.373 33.4538 921 31.7054 921 29.4185C921 27.145 921.373 25.4032 922.12 24.1933C922.867 22.9834 923.946 22.3784 925.36 22.3784ZM922.42 29.4185C922.42 31.0406 922.567 32.3104 922.86 33.2278L927.3 24.3927C926.833 23.7678 926.186 23.4554 925.36 23.4554C924.44 23.4554 923.72 23.9473 923.2 24.9312C922.68 25.9018 922.42 27.3976 922.42 29.4185ZM925.36 35.3817C926.293 35.3817 927.02 34.8964 927.54 33.9258C928.06 32.9419 928.319 31.4395 928.319 29.4185C928.319 27.7034 928.153 26.3738 927.82 25.4298L923.38 34.3446C923.86 35.036 924.52 35.3817 925.36 35.3817Z" fill="url(#paint73_linear_122_130)"/>
<path d="M925.36 45.1712C926.786 45.1712 927.866 45.7762 928.599 46.9861C929.346 48.1827 929.719 49.9245 929.719 52.2113C929.719 54.4982 929.346 56.2466 928.599 57.4565C927.866 58.6664 926.786 59.2714 925.36 59.2714C923.946 59.2714 922.867 58.6664 922.12 57.4565C921.373 56.2466 921 54.4982 921 52.2113C921 49.9378 921.373 48.196 922.12 46.9861C922.867 45.7762 923.946 45.1712 925.36 45.1712ZM922.42 52.2113C922.42 53.8334 922.567 55.1032 922.86 56.0206L927.3 47.1855C926.833 46.5606 926.186 46.2482 925.36 46.2482C924.44 46.2482 923.72 46.7401 923.2 47.724C922.68 48.6946 922.42 50.1904 922.42 52.2113ZM925.36 58.1745C926.293 58.1745 927.02 57.6892 927.54 56.7186C928.06 55.7347 928.319 54.2323 928.319 52.2113C928.319 50.4962 928.153 49.1666 927.82 48.2226L923.38 57.1374C923.86 57.8288 924.52 58.1745 925.36 58.1745Z" fill="url(#paint74_linear_122_130)"/>
<path d="M926.56 80.8078H929.499V81.8648H921.88V80.8078H925.28V69.5994L922.04 71.5339L921.48 70.6365L925.48 68.1635H926.56V80.8078Z" fill="url(#paint75_linear_122_130)"/>
<path d="M925.36 90.7568C926.786 90.7568 927.866 91.3618 928.599 92.5717C929.346 93.7683 929.719 95.5101 929.719 97.7969C929.719 100.084 929.346 101.832 928.599 103.042C927.866 104.252 926.786 104.857 925.36 104.857C923.946 104.857 922.867 104.252 922.12 103.042C921.373 101.832 921 100.084 921 97.7969C921 95.5234 921.373 93.7816 922.12 92.5717C922.867 91.3618 923.946 90.7568 925.36 90.7568ZM922.42 97.7969C922.42 99.419 922.567 100.689 922.86 101.606L927.3 92.7711C926.833 92.1462 926.186 91.8338 925.36 91.8338C924.44 91.8338 923.72 92.3257 923.2 93.3096C922.68 94.2802 922.42 95.776 922.42 97.7969ZM925.36 103.76C926.293 103.76 927.02 103.275 927.54 102.304C928.06 101.32 928.319 99.8179 928.319 97.7969C928.319 96.0818 928.153 94.7522 927.82 93.8082L923.38 102.723C923.86 103.414 924.52 103.76 925.36 103.76Z" fill="url(#paint76_linear_122_130)"/>
<path d="M926.56 126.393H929.499V127.45H921.88V126.393H925.28V115.185L922.04 117.12L921.48 116.222L925.48 113.749H926.56V126.393Z" fill="url(#paint77_linear_122_130)"/>
<path d="M926.56 149.186H929.499V150.243H921.88V149.186H925.28V137.978L922.04 139.912L921.48 139.015L925.48 136.542H926.56V149.186Z" fill="url(#paint78_linear_122_130)"/>
<path d="M963.7 -10.3635H966.64V-9.30644H959.02V-10.3635H962.42V-21.5718L959.18 -19.6373L958.62 -20.5347L962.62 -23.0078H963.7V-10.3635Z" fill="url(#paint79_linear_122_130)"/>
<path d="M962.5 -0.414395C963.927 -0.414395 965.006 0.190567 965.74 1.40048C966.486 2.59711 966.86 4.33886 966.86 6.62573C966.86 8.91261 966.486 10.661 965.74 11.8709C965.006 13.0808 963.927 13.6858 962.5 13.6858C961.087 13.6858 960.007 13.0808 959.26 11.8709C958.514 10.661 958.14 8.91261 958.14 6.62573C958.14 4.35215 958.514 2.6104 959.26 1.40048C960.007 0.190567 961.087 -0.414395 962.5 -0.414395ZM959.56 6.62573C959.56 8.24782 959.707 9.51757 960 10.435L964.44 1.59992C963.973 0.975018 963.327 0.662564 962.5 0.662564C961.58 0.662564 960.86 1.15451 960.34 2.1384C959.82 3.10899 959.56 4.60477 959.56 6.62573ZM962.5 12.5889C963.433 12.5889 964.16 12.1036 964.68 11.133C965.2 10.1491 965.46 8.6467 965.46 6.62573C965.46 4.91057 965.293 3.58099 964.96 2.63699L960.52 11.5518C961 12.2432 961.66 12.5889 962.5 12.5889Z" fill="url(#paint80_linear_122_130)"/>
<path d="M963.7 35.2221H966.64V36.2792H959.02V35.2221H962.42V24.0138L959.18 25.9483L958.62 25.0509L962.62 22.5778H963.7V35.2221Z" fill="url(#paint81_linear_122_130)"/>
<path d="M963.7 58.015H966.64V59.072H959.02V58.015H962.42V46.8066L959.18 48.7411L958.62 47.8437L962.62 45.3706H963.7V58.015Z" fill="url(#paint82_linear_122_130)"/>
<path d="M962.5 67.964C963.927 67.964 965.006 68.569 965.74 69.7789C966.486 70.9755 966.86 72.7173 966.86 75.0041C966.86 77.291 966.486 79.0394 965.74 80.2493C965.006 81.4593 963.927 82.0642 962.5 82.0642C961.087 82.0642 960.007 81.4593 959.26 80.2493C958.514 79.0394 958.14 77.291 958.14 75.0041C958.14 72.7306 958.514 70.9888 959.26 69.7789C960.007 68.569 961.087 67.964 962.5 67.964ZM959.56 75.0041C959.56 76.6262 959.707 77.896 960 78.8134L964.44 69.9783C963.973 69.3534 963.327 69.041 962.5 69.041C961.58 69.041 960.86 69.5329 960.34 70.5168C959.82 71.4874 959.56 72.9832 959.56 75.0041ZM962.5 80.9673C963.433 80.9673 964.16 80.482 964.68 79.5114C965.2 78.5275 965.46 77.0251 965.46 75.0041C965.46 73.289 965.293 71.9594 964.96 71.0154L960.52 79.9302C961 80.6216 961.66 80.9673 962.5 80.9673Z" fill="url(#paint83_linear_122_130)"/>
<path d="M963.7 103.601H966.64V104.658H959.02V103.601H962.42V92.3922L959.18 94.3267L958.62 93.4293L962.62 90.9562H963.7V103.601Z" fill="url(#paint84_linear_122_130)"/>
<path d="M963.7 126.393H966.64V127.45H959.02V126.393H962.42V115.185L959.18 117.12L958.62 116.222L962.62 113.749H963.7V126.393Z" fill="url(#paint85_linear_122_130)"/>
<path d="M962.5 136.342C963.927 136.342 965.006 136.947 965.74 138.157C966.486 139.354 966.86 141.096 966.86 143.383C966.86 145.669 966.486 147.418 965.74 148.628C965.006 149.838 963.927 150.443 962.5 150.443C961.087 150.443 960.007 149.838 959.26 148.628C958.514 147.418 958.14 145.669 958.14 143.383C958.14 141.109 958.514 139.367 959.26 138.157C960.007 136.947 961.087 136.342 962.5 136.342ZM959.56 143.383C959.56 145.005 959.707 146.274 960 147.192L964.44 138.357C963.973 137.732 963.327 137.419 962.5 137.419C961.58 137.419 960.86 137.911 960.34 138.895C959.82 139.866 959.56 141.362 959.56 143.383ZM962.5 149.346C963.433 149.346 964.16 148.86 964.68 147.89C965.2 146.906 965.46 145.404 965.46 143.383C965.46 141.667 965.293 140.338 964.96 139.394L960.52 148.309C961 149 961.66 149.346 962.5 149.346Z" fill="url(#paint86_linear_122_130)"/>
<path d="M963.7 171.979H966.64V173.036H959.02V171.979H962.42V160.771L959.18 162.705L958.62 161.808L962.62 159.335H963.7V171.979Z" fill="url(#paint87_linear_122_130)"/>
<path d="M962.5 181.928C963.927 181.928 965.006 182.533 965.74 183.743C966.486 184.94 966.86 186.681 966.86 188.968C966.86 191.255 966.486 193.003 965.74 194.213C965.006 195.423 963.927 196.028 962.5 196.028C961.087 196.028 960.007 195.423 959.26 194.213C958.514 193.003 958.14 191.255 958.14 188.968C958.14 186.695 958.514 184.953 959.26 183.743C960.007 182.533 961.087 181.928 962.5 181.928ZM959.56 188.968C959.56 190.59 959.707 191.86 960 192.777L964.44 183.942C963.973 183.317 963.327 183.005 962.5 183.005C961.58 183.005 960.86 183.497 960.34 184.481C959.82 185.451 959.56 186.947 959.56 188.968ZM962.5 194.931C963.433 194.931 964.16 194.446 964.68 193.475C965.2 192.492 965.46 190.989 965.46 188.968C965.46 187.253 965.293 185.923 964.96 184.979L960.52 193.894C961 194.586 961.66 194.931 962.5 194.931Z" fill="url(#paint88_linear_122_130)"/>
<path d="M999.64 -23.2072C1001.07 -23.2072 1002.15 -22.6022 1002.88 -21.3923C1003.63 -20.1957 1004 -18.4539 1004 -16.1671C1004 -13.8802 1003.63 -12.1318 1002.88 -10.9219C1002.15 -9.71196 1001.07 -9.107 999.64 -9.107C998.227 -9.107 997.147 -9.71196 996.401 -10.9219C995.654 -12.1318 995.281 -13.8802 995.281 -16.1671C995.281 -18.4407 995.654 -20.1824 996.401 -21.3923C997.147 -22.6022 998.227 -23.2072 999.64 -23.2072ZM996.7 -16.1671C996.7 -14.545 996.847 -13.2752 997.14 -12.3578L1001.58 -21.1929C1001.11 -21.8178 1000.47 -22.1302 999.64 -22.1302C998.72 -22.1302 998 -21.6383 997.48 -20.6544C996.96 -19.6838 996.7 -18.188 996.7 -16.1671ZM999.64 -10.2039C1000.57 -10.2039 1001.3 -10.6892 1001.82 -11.6598C1002.34 -12.6437 1002.6 -14.1461 1002.6 -16.1671C1002.6 -17.8822 1002.43 -19.2118 1002.1 -20.1558L997.66 -11.241C998.14 -10.5496 998.8 -10.2039 999.64 -10.2039Z" fill="url(#paint89_linear_122_130)"/>
<path d="M1000.84 12.4293H1003.78V13.4864H996.161V12.4293H999.56V1.22099L996.321 3.15553L995.761 2.25806L999.76 -0.214959H1000.84V12.4293Z" fill="url(#paint90_linear_122_130)"/>
<path d="M1000.84 35.2221H1003.78V36.2792H996.161V35.2221H999.56V24.0138L996.321 25.9483L995.761 25.0509L999.76 22.5778H1000.84V35.2221Z" fill="url(#paint91_linear_122_130)"/>
<path d="M999.64 45.1712C1001.07 45.1712 1002.15 45.7762 1002.88 46.9861C1003.63 48.1827 1004 49.9245 1004 52.2113C1004 54.4982 1003.63 56.2466 1002.88 57.4565C1002.15 58.6664 1001.07 59.2714 999.64 59.2714C998.227 59.2714 997.147 58.6664 996.401 57.4565C995.654 56.2466 995.281 54.4982 995.281 52.2113C995.281 49.9378 995.654 48.196 996.401 46.9861C997.147 45.7762 998.227 45.1712 999.64 45.1712ZM996.7 52.2113C996.7 53.8334 996.847 55.1032 997.14 56.0206L1001.58 47.1855C1001.11 46.5606 1000.47 46.2482 999.64 46.2482C998.72 46.2482 998 46.7401 997.48 47.724C996.96 48.6946 996.7 50.1904 996.7 52.2113ZM999.64 58.1745C1000.57 58.1745 1001.3 57.6892 1001.82 56.7186C1002.34 55.7347 1002.6 54.2323 1002.6 52.2113C1002.6 50.4962 1002.43 49.1666 1002.1 48.2226L997.66 57.1374C998.14 57.8288 998.8 58.1745 999.64 58.1745Z" fill="url(#paint92_linear_122_130)"/>
<path d="M999.64 67.964C1001.07 67.964 1002.15 68.569 1002.88 69.7789C1003.63 70.9755 1004 72.7173 1004 75.0041C1004 77.291 1003.63 79.0394 1002.88 80.2493C1002.15 81.4593 1001.07 82.0642 999.64 82.0642C998.227 82.0642 997.147 81.4593 996.401 80.2493C995.654 79.0394 995.281 77.291 995.281 75.0041C995.281 72.7306 995.654 70.9888 996.401 69.7789C997.147 68.569 998.227 67.964 999.64 67.964ZM996.7 75.0041C996.7 76.6262 996.847 77.896 997.14 78.8134L1001.58 69.9783C1001.11 69.3534 1000.47 69.041 999.64 69.041C998.72 69.041 998 69.5329 997.48 70.5168C996.96 71.4874 996.7 72.9832 996.7 75.0041ZM999.64 80.9673C1000.57 80.9673 1001.3 80.482 1001.82 79.5114C1002.34 78.5275 1002.6 77.0251 1002.6 75.0041C1002.6 73.289 1002.43 71.9594 1002.1 71.0154L997.66 79.9302C998.14 80.6216 998.8 80.9673 999.64 80.9673Z" fill="url(#paint93_linear_122_130)"/>
</g>
</g>
<defs>
<filter id="filter0_f_122_130" x="-534.19" y="-732.19" width="2141.38" height="1500.38" filterUnits="userSpaceOnUse" color-interpolation-filters="sRGB">
<feFlood flood-opacity="0" result="BackgroundImageFix"/>
<feBlend mode="normal" in="SourceGraphic" in2="BackgroundImageFix" result="shape"/>
<feGaussianBlur stdDeviation="200.095" result="effect1_foregroundBlur_122_130"/>
</filter>
<linearGradient id="paint0_linear_122_130" x1="76.5" y1="254" x2="76.5" y2="565.381" gradientUnits="userSpaceOnUse">
<stop stop-color="#F7DD43"/>
<stop offset="1" stop-color="#F7DD43" stop-opacity="0"/>
</linearGradient>
<linearGradient id="paint1_linear_122_130" x1="76.5" y1="254" x2="76.5" y2="565.381" gradientUnits="userSpaceOnUse">
<stop stop-color="#F7DD43"/>
<stop offset="1" stop-color="#F7DD43" stop-opacity="0"/>
</linearGradient>
<linearGradient id="paint2_linear_122_130" x1="76.5" y1="254" x2="76.5" y2="565.381" gradientUnits="userSpaceOnUse">
<stop stop-color="#F7DD43"/>
<stop offset="1" stop-color="#F7DD43" stop-opacity="0"/>
</linearGradient>
<linearGradient id="paint3_linear_122_130" x1="76.5" y1="254" x2="76.5" y2="565.381" gradientUnits="userSpaceOnUse">
<stop stop-color="#F7DD43"/>
<stop offset="1" stop-color="#F7DD43" stop-opacity="0"/>
</linearGradient>
<linearGradient id="paint4_linear_122_130" x1="76.5" y1="254" x2="76.5" y2="565.381" gradientUnits="userSpaceOnUse">
<stop stop-color="#F7DD43"/>
<stop offset="1" stop-color="#F7DD43" stop-opacity="0"/>
</linearGradient>
<linearGradient id="paint5_linear_122_130" x1="76.5" y1="254" x2="76.5" y2="565.381" gradientUnits="userSpaceOnUse">
<stop stop-color="#F7DD43"/>
<stop offset="1" stop-color="#F7DD43" stop-opacity="0"/>
</linearGradient>
<linearGradient id="paint6_linear_122_130" x1="76.5" y1="254" x2="76.5" y2="565.381" gradientUnits="userSpaceOnUse">
<stop stop-color="#F7DD43"/>
<stop offset="1" stop-color="#F7DD43" stop-opacity="0"/>
</linearGradient>
<linearGradient id="paint7_linear_122_130" x1="76.5" y1="254" x2="76.5" y2="565.381" gradientUnits="userSpaceOnUse">
<stop stop-color="#F7DD43"/>
<stop offset="1" stop-color="#F7DD43" stop-opacity="0"/>
</linearGradient>
<linearGradient id="paint8_linear_122_130" x1="76.5" y1="254" x2="76.5" y2="565.381" gradientUnits="userSpaceOnUse">
<stop stop-color="#F7DD43"/>
<stop offset="1" stop-color="#F7DD43" stop-opacity="0"/>
</linearGradient>
<linearGradient id="paint9_linear_122_130" x1="76.5" y1="254" x2="76.5" y2="565.381" gradientUnits="userSpaceOnUse">
<stop stop-color="#F7DD43"/>
<stop offset="1" stop-color="#F7DD43" stop-opacity="0"/>
</linearGradient>
<linearGradient id="paint10_linear_122_130" x1="76.5" y1="254" x2="76.5" y2="565.381" gradientUnits="userSpaceOnUse">
<stop stop-color="#F7DD43"/>
<stop offset="1" stop-color="#F7DD43" stop-opacity="0"/>
</linearGradient>
<linearGradient id="paint11_linear_122_130" x1="76.5" y1="254" x2="76.5" y2="565.381" gradientUnits="userSpaceOnUse">
<stop stop-color="#F7DD43"/>
<stop offset="1" stop-color="#F7DD43" stop-opacity="0"/>
</linearGradient>
<linearGradient id="paint12_linear_122_130" x1="76.5" y1="254" x2="76.5" y2="565.381" gradientUnits="userSpaceOnUse">
<stop stop-color="#F7DD43"/>
<stop offset="1" stop-color="#F7DD43" stop-opacity="0"/>
</linearGradient>
<linearGradient id="paint13_linear_122_130" x1="76.5" y1="254" x2="76.5" y2="565.381" gradientUnits="userSpaceOnUse">
<stop stop-color="#F7DD43"/>
<stop offset="1" stop-color="#F7DD43" stop-opacity="0"/>
</linearGradient>
<linearGradient id="paint14_linear_122_130" x1="76.5" y1="254" x2="76.5" y2="565.381" gradientUnits="userSpaceOnUse">
<stop stop-color="#F7DD43"/>
<stop offset="1" stop-color="#F7DD43" stop-opacity="0"/>
</linearGradient>
<linearGradient id="paint15_linear_122_130" x1="76.5" y1="254" x2="76.5" y2="565.381" gradientUnits="userSpaceOnUse">
<stop stop-color="#F7DD43"/>
<stop offset="1" stop-color="#F7DD43" stop-opacity="0"/>
</linearGradient>
<linearGradient id="paint16_linear_122_130" x1="76.5" y1="254" x2="76.5" y2="565.381" gradientUnits="userSpaceOnUse">
<stop stop-color="#F7DD43"/>
<stop offset="1" stop-color="#F7DD43" stop-opacity="0"/>
</linearGradient>
<linearGradient id="paint17_linear_122_130" x1="76.5" y1="254" x2="76.5" y2="565.381" gradientUnits="userSpaceOnUse">
<stop stop-color="#F7DD43"/>
<stop offset="1" stop-color="#F7DD43" stop-opacity="0"/>
</linearGradient>
<linearGradient id="paint18_linear_122_130" x1="76.5" y1="254" x2="76.5" y2="565.381" gradientUnits="userSpaceOnUse">
<stop stop-color="#F7DD43"/>
<stop offset="1" stop-color="#F7DD43" stop-opacity="0"/>
</linearGradient>
<linearGradient id="paint19_linear_122_130" x1="76.5" y1="254" x2="76.5" y2="565.381" gradientUnits="userSpaceOnUse">
<stop stop-color="#F7DD43"/>
<stop offset="1" stop-color="#F7DD43" stop-opacity="0"/>
</linearGradient>
<linearGradient id="paint20_linear_122_130" x1="76.5" y1="254" x2="76.5" y2="565.381" gradientUnits="userSpaceOnUse">
<stop stop-color="#F7DD43"/>
<stop offset="1" stop-color="#F7DD43" stop-opacity="0"/>
</linearGradient>
<linearGradient id="paint21_linear_122_130" x1="76.5" y1="254" x2="76.5" y2="565.381" gradientUnits="userSpaceOnUse">
<stop stop-color="#F7DD43"/>
<stop offset="1" stop-color="#F7DD43" stop-opacity="0"/>
</linearGradient>
<linearGradient id="paint22_linear_122_130" x1="76.5" y1="254" x2="76.5" y2="565.381" gradientUnits="userSpaceOnUse">
<stop stop-color="#F7DD43"/>
<stop offset="1" stop-color="#F7DD43" stop-opacity="0"/>
</linearGradient>
<linearGradient id="paint23_linear_122_130" x1="76.5" y1="254" x2="76.5" y2="565.381" gradientUnits="userSpaceOnUse">
<stop stop-color="#F7DD43"/>
<stop offset="1" stop-color="#F7DD43" stop-opacity="0"/>
</linearGradient>
<linearGradient id="paint24_linear_122_130" x1="76.5" y1="254" x2="76.5" y2="565.381" gradientUnits="userSpaceOnUse">
<stop stop-color="#F7DD43"/>
<stop offset="1" stop-color="#F7DD43" stop-opacity="0"/>
</linearGradient>
<linearGradient id="paint25_linear_122_130" x1="76.5" y1="254" x2="76.5" y2="565.381" gradientUnits="userSpaceOnUse">
<stop stop-color="#F7DD43"/>
<stop offset="1" stop-color="#F7DD43" stop-opacity="0"/>
</linearGradient>
<linearGradient id="paint26_linear_122_130" x1="76.5" y1="254" x2="76.5" y2="565.381" gradientUnits="userSpaceOnUse">
<stop stop-color="#F7DD43"/>
<stop offset="1" stop-color="#F7DD43" stop-opacity="0"/>
</linearGradient>
<linearGradient id="paint27_linear_122_130" x1="76.5" y1="254" x2="76.5" y2="565.381" gradientUnits="userSpaceOnUse">
<stop stop-color="#F7DD43"/>
<stop offset="1" stop-color="#F7DD43" stop-opacity="0"/>
</linearGradient>
<linearGradient id="paint28_linear_122_130" x1="76.5" y1="254" x2="76.5" y2="565.381" gradientUnits="userSpaceOnUse">
<stop stop-color="#F7DD43"/>
<stop offset="1" stop-color="#F7DD43" stop-opacity="0"/>
</linearGradient>
<linearGradient id="paint29_linear_122_130" x1="76.5" y1="254" x2="76.5" y2="565.381" gradientUnits="userSpaceOnUse">
<stop stop-color="#F7DD43"/>
<stop offset="1" stop-color="#F7DD43" stop-opacity="0"/>
</linearGradient>
<linearGradient id="paint30_linear_122_130" x1="76.5" y1="254" x2="76.5" y2="565.381" gradientUnits="userSpaceOnUse">
<stop stop-color="#F7DD43"/>
<stop offset="1" stop-color="#F7DD43" stop-opacity="0"/>
</linearGradient>
<linearGradient id="paint31_linear_122_130" x1="76.5" y1="254" x2="76.5" y2="565.381" gradientUnits="userSpaceOnUse">
<stop stop-color="#F7DD43"/>
<stop offset="1" stop-color="#F7DD43" stop-opacity="0"/>
</linearGradient>
<linearGradient id="paint32_linear_122_130" x1="76.5" y1="254" x2="76.5" y2="565.381" gradientUnits="userSpaceOnUse">
<stop stop-color="#F7DD43"/>
<stop offset="1" stop-color="#F7DD43" stop-opacity="0"/>
</linearGradient>
<linearGradient id="paint33_linear_122_130" x1="76.5" y1="254" x2="76.5" y2="565.381" gradientUnits="userSpaceOnUse">
<stop stop-color="#F7DD43"/>
<stop offset="1" stop-color="#F7DD43" stop-opacity="0"/>
</linearGradient>
<linearGradient id="paint34_linear_122_130" x1="76.5" y1="254" x2="76.5" y2="565.381" gradientUnits="userSpaceOnUse">
<stop stop-color="#F7DD43"/>
<stop offset="1" stop-color="#F7DD43" stop-opacity="0"/>
</linearGradient>
<linearGradient id="paint35_linear_122_130" x1="76.5" y1="254" x2="76.5" y2="565.381" gradientUnits="userSpaceOnUse">
<stop stop-color="#F7DD43"/>
<stop offset="1" stop-color="#F7DD43" stop-opacity="0"/>
</linearGradient>
<linearGradient id="paint36_linear_122_130" x1="76.5" y1="254" x2="76.5" y2="565.381" gradientUnits="userSpaceOnUse">
<stop stop-color="#F7DD43"/>
<stop offset="1" stop-color="#F7DD43" stop-opacity="0"/>
</linearGradient>
<linearGradient id="paint37_linear_122_130" x1="76.5" y1="254" x2="76.5" y2="565.381" gradientUnits="userSpaceOnUse">
<stop stop-color="#F7DD43"/>
<stop offset="1" stop-color="#F7DD43" stop-opacity="0"/>
</linearGradient>
<linearGradient id="paint38_linear_122_130" x1="76.5" y1="254" x2="76.5" y2="565.381" gradientUnits="userSpaceOnUse">
<stop stop-color="#F7DD43"/>
<stop offset="1" stop-color="#F7DD43" stop-opacity="0"/>
</linearGradient>
<linearGradient id="paint39_linear_122_130" x1="76.5" y1="254" x2="76.5" y2="565.381" gradientUnits="userSpaceOnUse">
<stop stop-color="#F7DD43"/>
<stop offset="1" stop-color="#F7DD43" stop-opacity="0"/>
</linearGradient>
<linearGradient id="paint40_linear_122_130" x1="76.5" y1="254" x2="76.5" y2="565.381" gradientUnits="userSpaceOnUse">
<stop stop-color="#F7DD43"/>
<stop offset="1" stop-color="#F7DD43" stop-opacity="0"/>
</linearGradient>
<linearGradient id="paint41_linear_122_130" x1="76.5" y1="254" x2="76.5" y2="565.381" gradientUnits="userSpaceOnUse">
<stop stop-color="#F7DD43"/>
<stop offset="1" stop-color="#F7DD43" stop-opacity="0"/>
</linearGradient>
<linearGradient id="paint42_linear_122_130" x1="76.5" y1="254" x2="76.5" y2="565.381" gradientUnits="userSpaceOnUse">
<stop stop-color="#F7DD43"/>
<stop offset="1" stop-color="#F7DD43" stop-opacity="0"/>
</linearGradient>
<linearGradient id="paint43_linear_122_130" x1="76.5" y1="254" x2="76.5" y2="565.381" gradientUnits="userSpaceOnUse">
<stop stop-color="#F7DD43"/>
<stop offset="1" stop-color="#F7DD43" stop-opacity="0"/>
</linearGradient>
<linearGradient id="paint44_linear_122_130" x1="76.5" y1="254" x2="76.5" y2="565.381" gradientUnits="userSpaceOnUse">
<stop stop-color="#F7DD43"/>
<stop offset="1" stop-color="#F7DD43" stop-opacity="0"/>
</linearGradient>
<linearGradient id="paint45_linear_122_130" x1="76.5" y1="254" x2="76.5" y2="565.381" gradientUnits="userSpaceOnUse">
<stop stop-color="#F7DD43"/>
<stop offset="1" stop-color="#F7DD43" stop-opacity="0"/>
</linearGradient>
<linearGradient id="paint46_linear_122_130" x1="76.5" y1="254" x2="76.5" y2="565.381" gradientUnits="userSpaceOnUse">
<stop stop-color="#F7DD43"/>
<stop offset="1" stop-color="#F7DD43" stop-opacity="0"/>
</linearGradient>
<linearGradient id="paint47_linear_122_130" x1="962.5" y1="-46" x2="962.5" y2="252.818" gradientUnits="userSpaceOnUse">
<stop stop-color="#F7DD43"/>
<stop offset="1" stop-color="#F7DD43" stop-opacity="0"/>
</linearGradient>
<linearGradient id="paint48_linear_122_130" x1="962.5" y1="-46" x2="962.5" y2="252.818" gradientUnits="userSpaceOnUse">
<stop stop-color="#F7DD43"/>
<stop offset="1" stop-color="#F7DD43" stop-opacity="0"/>
</linearGradient>
<linearGradient id="paint49_linear_122_130" x1="962.5" y1="-46" x2="962.5" y2="252.818" gradientUnits="userSpaceOnUse">
<stop stop-color="#F7DD43"/>
<stop offset="1" stop-color="#F7DD43" stop-opacity="0"/>
</linearGradient>
<linearGradient id="paint50_linear_122_130" x1="962.5" y1="-46" x2="962.5" y2="252.818" gradientUnits="userSpaceOnUse">
<stop stop-color="#F7DD43"/>
<stop offset="1" stop-color="#F7DD43" stop-opacity="0"/>
</linearGradient>
<linearGradient id="paint51_linear_122_130" x1="962.5" y1="-46" x2="962.5" y2="252.818" gradientUnits="userSpaceOnUse">
<stop stop-color="#F7DD43"/>
<stop offset="1" stop-color="#F7DD43" stop-opacity="0"/>
</linearGradient>
<linearGradient id="paint52_linear_122_130" x1="962.5" y1="-46" x2="962.5" y2="252.818" gradientUnits="userSpaceOnUse">
<stop stop-color="#F7DD43"/>
<stop offset="1" stop-color="#F7DD43" stop-opacity="0"/>
</linearGradient>
<linearGradient id="paint53_linear_122_130" x1="962.5" y1="-46" x2="962.5" y2="252.818" gradientUnits="userSpaceOnUse">
<stop stop-color="#F7DD43"/>
<stop offset="1" stop-color="#F7DD43" stop-opacity="0"/>
</linearGradient>
<linearGradient id="paint54_linear_122_130" x1="962.5" y1="-46" x2="962.5" y2="252.818" gradientUnits="userSpaceOnUse">
<stop stop-color="#F7DD43"/>
<stop offset="1" stop-color="#F7DD43" stop-opacity="0"/>
</linearGradient>
<linearGradient id="paint55_linear_122_130" x1="962.5" y1="-46" x2="962.5" y2="252.818" gradientUnits="userSpaceOnUse">
<stop stop-color="#F7DD43"/>
<stop offset="1" stop-color="#F7DD43" stop-opacity="0"/>
</linearGradient>
<linearGradient id="paint56_linear_122_130" x1="962.5" y1="-46" x2="962.5" y2="252.818" gradientUnits="userSpaceOnUse">
<stop stop-color="#F7DD43"/>
<stop offset="1" stop-color="#F7DD43" stop-opacity="0"/>
</linearGradient>
<linearGradient id="paint57_linear_122_130" x1="962.5" y1="-46" x2="962.5" y2="252.818" gradientUnits="userSpaceOnUse">
<stop stop-color="#F7DD43"/>
<stop offset="1" stop-color="#F7DD43" stop-opacity="0"/>
</linearGradient>
<linearGradient id="paint58_linear_122_130" x1="962.5" y1="-46" x2="962.5" y2="252.818" gradientUnits="userSpaceOnUse">
<stop stop-color="#F7DD43"/>
<stop offset="1" stop-color="#F7DD43" stop-opacity="0"/>
</linearGradient>
<linearGradient id="paint59_linear_122_130" x1="962.5" y1="-46" x2="962.5" y2="252.818" gradientUnits="userSpaceOnUse">
<stop stop-color="#F7DD43"/>
<stop offset="1" stop-color="#F7DD43" stop-opacity="0"/>
</linearGradient>
<linearGradient id="paint60_linear_122_130" x1="962.5" y1="-46" x2="962.5" y2="252.818" gradientUnits="userSpaceOnUse">
<stop stop-color="#F7DD43"/>
<stop offset="1" stop-color="#F7DD43" stop-opacity="0"/>
</linearGradient>
<linearGradient id="paint61_linear_122_130" x1="962.5" y1="-46" x2="962.5" y2="252.818" gradientUnits="userSpaceOnUse">
<stop stop-color="#F7DD43"/>
<stop offset="1" stop-color="#F7DD43" stop-opacity="0"/>
</linearGradient>
<linearGradient id="paint62_linear_122_130" x1="962.5" y1="-46" x2="962.5" y2="252.818" gradientUnits="userSpaceOnUse">
<stop stop-color="#F7DD43"/>
<stop offset="1" stop-color="#F7DD43" stop-opacity="0"/>
</linearGradient>
<linearGradient id="paint63_linear_122_130" x1="962.5" y1="-46" x2="962.5" y2="252.818" gradientUnits="userSpaceOnUse">
<stop stop-color="#F7DD43"/>
<stop offset="1" stop-color="#F7DD43" stop-opacity="0"/>
</linearGradient>
<linearGradient id="paint64_linear_122_130" x1="962.5" y1="-46" x2="962.5" y2="252.818" gradientUnits="userSpaceOnUse">
<stop stop-color="#F7DD43"/>
<stop offset="1" stop-color="#F7DD43" stop-opacity="0"/>
</linearGradient>
<linearGradient id="paint65_linear_122_130" x1="962.5" y1="-46" x2="962.5" y2="252.818" gradientUnits="userSpaceOnUse">
<stop stop-color="#F7DD43"/>
<stop offset="1" stop-color="#F7DD43" stop-opacity="0"/>
</linearGradient>
<linearGradient id="paint66_linear_122_130" x1="962.5" y1="-46" x2="962.5" y2="252.818" gradientUnits="userSpaceOnUse">
<stop stop-color="#F7DD43"/>
<stop offset="1" stop-color="#F7DD43" stop-opacity="0"/>
</linearGradient>
<linearGradient id="paint67_linear_122_130" x1="962.5" y1="-46" x2="962.5" y2="252.818" gradientUnits="userSpaceOnUse">
<stop stop-color="#F7DD43"/>
<stop offset="1" stop-color="#F7DD43" stop-opacity="0"/>
</linearGradient>
<linearGradient id="paint68_linear_122_130" x1="962.5" y1="-46" x2="962.5" y2="252.818" gradientUnits="userSpaceOnUse">
<stop stop-color="#F7DD43"/>
<stop offset="1" stop-color="#F7DD43" stop-opacity="0"/>
</linearGradient>
<linearGradient id="paint69_linear_122_130" x1="962.5" y1="-46" x2="962.5" y2="252.818" gradientUnits="userSpaceOnUse">
<stop stop-color="#F7DD43"/>
<stop offset="1" stop-color="#F7DD43" stop-opacity="0"/>
</linearGradient>
<linearGradient id="paint70_linear_122_130" x1="962.5" y1="-46" x2="962.5" y2="252.818" gradientUnits="userSpaceOnUse">
<stop stop-color="#F7DD43"/>
<stop offset="1" stop-color="#F7DD43" stop-opacity="0"/>
</linearGradient>
<linearGradient id="paint71_linear_122_130" x1="962.5" y1="-46" x2="962.5" y2="252.818" gradientUnits="userSpaceOnUse">
<stop stop-color="#F7DD43"/>
<stop offset="1" stop-color="#F7DD43" stop-opacity="0"/>
</linearGradient>
<linearGradient id="paint72_linear_122_130" x1="962.5" y1="-46" x2="962.5" y2="252.818" gradientUnits="userSpaceOnUse">
<stop stop-color="#F7DD43"/>
<stop offset="1" stop-color="#F7DD43" stop-opacity="0"/>
</linearGradient>
<linearGradient id="paint73_linear_122_130" x1="962.5" y1="-46" x2="962.5" y2="252.818" gradientUnits="userSpaceOnUse">
<stop stop-color="#F7DD43"/>
<stop offset="1" stop-color="#F7DD43" stop-opacity="0"/>
</linearGradient>
<linearGradient id="paint74_linear_122_130" x1="962.5" y1="-46" x2="962.5" y2="252.818" gradientUnits="userSpaceOnUse">
<stop stop-color="#F7DD43"/>
<stop offset="1" stop-color="#F7DD43" stop-opacity="0"/>
</linearGradient>
<linearGradient id="paint75_linear_122_130" x1="962.5" y1="-46" x2="962.5" y2="252.818" gradientUnits="userSpaceOnUse">
<stop stop-color="#F7DD43"/>
<stop offset="1" stop-color="#F7DD43" stop-opacity="0"/>
</linearGradient>
<linearGradient id="paint76_linear_122_130" x1="962.5" y1="-46" x2="962.5" y2="252.818" gradientUnits="userSpaceOnUse">
<stop stop-color="#F7DD43"/>
<stop offset="1" stop-color="#F7DD43" stop-opacity="0"/>
</linearGradient>
<linearGradient id="paint77_linear_122_130" x1="962.5" y1="-46" x2="962.5" y2="252.818" gradientUnits="userSpaceOnUse">
<stop stop-color="#F7DD43"/>
<stop offset="1" stop-color="#F7DD43" stop-opacity="0"/>
</linearGradient>
<linearGradient id="paint78_linear_122_130" x1="962.5" y1="-46" x2="962.5" y2="252.818" gradientUnits="userSpaceOnUse">
<stop stop-color="#F7DD43"/>
<stop offset="1" stop-color="#F7DD43" stop-opacity="0"/>
</linearGradient>
<linearGradient id="paint79_linear_122_130" x1="962.5" y1="-46" x2="962.5" y2="252.818" gradientUnits="userSpaceOnUse">
<stop stop-color="#F7DD43"/>
<stop offset="1" stop-color="#F7DD43" stop-opacity="0"/>
</linearGradient>
<linearGradient id="paint80_linear_122_130" x1="962.5" y1="-46" x2="962.5" y2="252.818" gradientUnits="userSpaceOnUse">
<stop stop-color="#F7DD43"/>
<stop offset="1" stop-color="#F7DD43" stop-opacity="0"/>
</linearGradient>
<linearGradient id="paint81_linear_122_130" x1="962.5" y1="-46" x2="962.5" y2="252.818" gradientUnits="userSpaceOnUse">
<stop stop-color="#F7DD43"/>
<stop offset="1" stop-color="#F7DD43" stop-opacity="0"/>
</linearGradient>
<linearGradient id="paint82_linear_122_130" x1="962.5" y1="-46" x2="962.5" y2="252.818" gradientUnits="userSpaceOnUse">
<stop stop-color="#F7DD43"/>
<stop offset="1" stop-color="#F7DD43" stop-opacity="0"/>
</linearGradient>
<linearGradient id="paint83_linear_122_130" x1="962.5" y1="-46" x2="962.5" y2="252.818" gradientUnits="userSpaceOnUse">
<stop stop-color="#F7DD43"/>
<stop offset="1" stop-color="#F7DD43" stop-opacity="0"/>
</linearGradient>
<linearGradient id="paint84_linear_122_130" x1="962.5" y1="-46" x2="962.5" y2="252.818" gradientUnits="userSpaceOnUse">
<stop stop-color="#F7DD43"/>
<stop offset="1" stop-color="#F7DD43" stop-opacity="0"/>
</linearGradient>
<linearGradient id="paint85_linear_122_130" x1="962.5" y1="-46" x2="962.5" y2="252.818" gradientUnits="userSpaceOnUse">
<stop stop-color="#F7DD43"/>
<stop offset="1" stop-color="#F7DD43" stop-opacity="0"/>
</linearGradient>
<linearGradient id="paint86_linear_122_130" x1="962.5" y1="-46" x2="962.5" y2="252.818" gradientUnits="userSpaceOnUse">
<stop stop-color="#F7DD43"/>
<stop offset="1" stop-color="#F7DD43" stop-opacity="0"/>
</linearGradient>
<linearGradient id="paint87_linear_122_130" x1="962.5" y1="-46" x2="962.5" y2="252.818" gradientUnits="userSpaceOnUse">
<stop stop-color="#F7DD43"/>
<stop offset="1" stop-color="#F7DD43" stop-opacity="0"/>
</linearGradient>
<linearGradient id="paint88_linear_122_130" x1="962.5" y1="-46" x2="962.5" y2="252.818" gradientUnits="userSpaceOnUse">
<stop stop-color="#F7DD43"/>
<stop offset="1" stop-color="#F7DD43" stop-opacity="0"/>
</linearGradient>
<linearGradient id="paint89_linear_122_130" x1="962.5" y1="-46" x2="962.5" y2="252.818" gradientUnits="userSpaceOnUse">
<stop stop-color="#F7DD43"/>
<stop offset="1" stop-color="#F7DD43" stop-opacity="0"/>
</linearGradient>
<linearGradient id="paint90_linear_122_130" x1="962.5" y1="-46" x2="962.5" y2="252.818" gradientUnits="userSpaceOnUse">
<stop stop-color="#F7DD43"/>
<stop offset="1" stop-color="#F7DD43" stop-opacity="0"/>
</linearGradient>
<linearGradient id="paint91_linear_122_130" x1="962.5" y1="-46" x2="962.5" y2="252.818" gradientUnits="userSpaceOnUse">
<stop stop-color="#F7DD43"/>
<stop offset="1" stop-color="#F7DD43" stop-opacity="0"/>
</linearGradient>
<linearGradient id="paint92_linear_122_130" x1="962.5" y1="-46" x2="962.5" y2="252.818" gradientUnits="userSpaceOnUse">
<stop stop-color="#F7DD43"/>
<stop offset="1" stop-color="#F7DD43" stop-opacity="0"/>
</linearGradient>
<linearGradient id="paint93_linear_122_130" x1="962.5" y1="-46" x2="962.5" y2="252.818" gradientUnits="userSpaceOnUse">
<stop stop-color="#F7DD43"/>
<stop offset="1" stop-color="#F7DD43" stop-opacity="0"/>
</linearGradient>
<clipPath id="clip0_122_130">
<rect width="1024" height="753" fill="white"/>
</clipPath>
</defs>
</svg>
